# xmcd CD database file
# Copyright (C) 1993-1998 Ti Kan
# 
# Track frame offsets:
#     150
#     3913
#     24004
#     37922
#     54340
#     71853
#     94487
#     112660
#     128374
#     150465
#     171869
#     192775
#     210600
#     230217
#     247979
#     270213
#     288198
#     302131
# 
# Disc length: 4371 seconds
# 
# Revision: 1
# Processed by: cddbd v1.4b41PL1 Copyright (c) Steve Scherf et al.
# Submitted via: DiscPlay 4.0.4
# 
DISCID=dc111112
DTITLE=Various Artist - Beatmission Volume 1
DYEAR=1900
DGENRE=
TTITLE0=Intro
TTITLE1=Ghetto Superstar - ODB, Mya, Sunz of Man
TTITLE2=Everythings gonna be lright - Sweetbox
TTITLE3=Stop being Greedy - DMX
TTITLE4=We Just Wanna Party - Jermaine Dupri
TTITLE5=Breakdown Remix - Mariah Carey and Bone
TTITLE6=Say It - Voices of Theory
TTITLE7=No, No, No Part II - Destiny's Child and Wyclef
TTITLE8=Let's Ride - Montell Jordan
TTITLE9=He Got Game - Public Enemy
TTITLE10=Ghetto Vet - Ice Cube
TTITLE11=Shining Star - ODB, Sunz of Man, Earth Wind Fire, Wyclef
TTITLE12=Too Close - Next
TTITLE13=Everything I Own - N Sync
TTITLE14=The Boy is Mine - Brandy and Monica
TTITLE15=Still not a Player - Big punisher and Joe
TTITLE16=Get Yo Bang On - AllFrumtha 1
TTITLE17=DJ-Kast MiniMix
EXTD=
EXTT0=
EXTT1=
EXTT2=
EXTT3=
EXTT4=
EXTT5=
EXTT6=
EXTT7=
EXTT8=
EXTT9=
EXTT10=
EXTT11=
EXTT12=
EXTT13=
EXTT14=
EXTT15=
EXTT16=
EXTT17=
PLAYORDER=
